<svg width="42" height="40" viewBox="0 0 42 40" fill="none" xmlns="http://www.w3.org/2000/svg">
<path fill-rule="evenodd" clip-rule="evenodd" d="M12.5412 0.12C14.7528 0.0222182 15.4578 0 21.0893 0C26.7219 0 27.4258 0.0233272 29.6362 0.12C31.8443 0.216673 33.3523 0.555564 34.6711 1.05C36.0544 1.55238 37.3075 2.33953 38.3433 3.35667C39.3979 4.35564 40.214 5.56447 40.7346 6.89889C41.2471 8.17111 41.5974 9.62556 41.6988 11.7544C41.8002 13.8878 41.8232 14.5678 41.8232 20C41.8232 25.4322 41.799 26.1122 41.6988 28.2456C41.5985 30.3744 41.2471 31.8289 40.7346 33.1011C40.2048 34.4156 39.4951 35.5322 38.3433 36.6433C37.3077 37.6605 36.0544 38.4478 34.6711 38.95C33.3523 39.4444 31.8443 39.7822 29.6375 39.88C27.4258 39.9778 26.7208 40 21.0893 40C15.4578 40 14.7528 39.9767 12.5412 39.88C10.3342 39.7833 8.8264 39.4444 7.5075 38.95C6.14481 38.4389 4.98718 37.7544 3.83531 36.6433C2.78065 35.6444 1.96457 34.4355 1.444 33.1011C0.931417 31.8289 0.581241 30.3744 0.479872 28.2456C0.378502 26.1122 0.355469 25.4333 0.355469 20C0.355469 14.5667 0.379652 13.8878 0.479872 11.7556C0.580092 9.62556 0.931417 8.17111 1.444 6.89889C1.96481 5.56456 2.78084 4.35578 3.83531 3.35667C4.8709 2.33935 6.1241 1.55215 7.5075 1.05C8.8264 0.555564 10.3342 0.217782 12.5412 0.12V0.12ZM29.4681 3.72C27.2818 3.62444 26.6253 3.60333 21.0893 3.60333C15.5534 3.60333 14.8968 3.62444 12.7105 3.72C10.689 3.80889 9.59125 4.13444 8.86095 4.40889C7.89337 4.77111 7.20224 5.20444 6.47655 5.90444C5.75204 6.60444 5.30164 7.27111 4.92613 8.20444C4.64161 8.90889 4.30412 9.96778 4.21196 11.9178C4.11289 14.0267 4.09101 14.66 4.09101 20C4.09101 25.34 4.11289 25.9733 4.21196 28.0822C4.30412 30.0322 4.64161 31.0911 4.92613 31.7956C5.25829 32.6644 5.78809 33.4502 6.47655 34.0956C7.1455 34.7596 7.96029 35.2707 8.86095 35.5911C9.59125 35.8656 10.689 36.1911 12.7105 36.28C14.8968 36.3756 15.5522 36.3967 21.0893 36.3967C26.6264 36.3967 27.2818 36.3756 29.4681 36.28C31.4896 36.1911 32.5874 35.8656 33.3178 35.5911C34.2853 35.2289 34.9765 34.7956 35.7022 34.0956C36.3905 33.4504 36.9204 32.6644 37.2525 31.7956C37.5371 31.0911 37.8745 30.0322 37.9667 28.0822C38.0658 25.9733 38.0877 25.34 38.0877 20C38.0877 14.66 38.0658 14.0267 37.9667 11.9178C37.8745 9.96778 37.5371 8.90889 37.2525 8.20444C36.877 7.27111 36.4278 6.60444 35.7022 5.90444C34.9765 5.20556 34.2853 4.77111 33.3178 4.40889C32.5874 4.13444 31.4896 3.80889 29.4681 3.72V3.72ZM18.442 26.1653C19.2813 26.5007 20.1808 26.6733 21.0893 26.6733C22.9243 26.6733 24.6838 25.9702 25.9812 24.7187C27.2787 23.4673 28.0076 21.7698 28.0076 20C28.0076 18.2302 27.2787 16.5327 25.9812 15.2812C24.6838 14.0297 22.9243 13.3267 21.0893 13.3267C20.1808 13.3267 19.2813 13.4993 18.442 13.8346C17.6024 14.17 16.8399 14.6615 16.1975 15.2812C15.5551 15.9009 15.0455 16.6365 14.6978 17.4462C14.3501 18.2558 14.1712 19.1236 14.1712 20C14.1712 20.8764 14.3501 21.7442 14.6978 22.5538C15.0455 23.3635 15.5551 24.0991 16.1975 24.7187C16.8399 25.3384 17.6024 25.83 18.442 26.1653V26.1653ZM13.5536 12.7309C15.5522 10.8031 18.2629 9.71998 21.0893 9.71998C23.9159 9.71998 26.6266 10.8031 28.6251 12.7309C30.6237 14.6588 31.7465 17.2736 31.7465 20C31.7465 22.7264 30.6237 25.3411 28.6251 27.2691C26.6266 29.1969 23.9159 30.28 21.0893 30.28C18.2629 30.28 15.5522 29.1969 13.5536 27.2691C11.555 25.3411 10.4322 22.7264 10.4322 20C10.4322 17.2736 11.555 14.6588 13.5536 12.7309V12.7309ZM34.1096 11.2516C34.582 10.7959 34.8474 10.1778 34.8474 9.53333C34.8474 8.88884 34.582 8.27076 34.1096 7.81505C33.6371 7.35935 32.9964 7.10333 32.3282 7.10333C31.6602 7.10333 31.0193 7.35935 30.547 7.81505C30.0744 8.27076 29.809 8.88884 29.809 9.53333C29.809 10.1778 30.0744 10.7959 30.547 11.2516C31.0193 11.7073 31.6602 11.9633 32.3282 11.9633C32.9964 11.9633 33.6371 11.7073 34.1096 11.2516Z" fill="white"/>
</svg>
