<svg width="47" height="40" viewBox="0 0 47 40" fill="none" xmlns="http://www.w3.org/2000/svg">
<path d="M42.9252 0.00372591C42.3286 0.0304944 41.7666 0.197797 41.2671 0.385176H41.2602C40.7537 0.579247 38.3464 1.5563 34.6902 3.03525C31.0341 4.5209 26.2887 6.44823 21.5781 8.36217C12.1706 12.1834 2.92269 15.9443 2.92269 15.9443L3.03369 15.9042C3.03369 15.9042 2.39543 16.1049 1.72941 16.5466C1.38947 16.7608 1.01483 17.0552 0.688764 17.517C0.362694 17.9787 0.0990619 18.6881 0.19619 19.4175C0.355757 20.6556 1.18828 21.3984 1.78491 21.8066C2.38849 22.2215 2.96432 22.4156 2.96432 22.4156H2.97819L11.6503 25.233C12.0388 26.4376 14.2935 33.5847 14.8347 35.231C15.1538 36.2147 15.466 36.8304 15.8545 37.2989C16.0418 37.5398 16.2638 37.7405 16.5274 37.9011C16.6315 37.9614 16.7425 38.0082 16.8535 38.0484C16.8882 38.0685 16.9229 38.0751 16.9645 38.0818L16.8743 38.0618C16.9021 38.0685 16.9229 38.0885 16.9437 38.0952C17.0131 38.1153 17.0616 38.122 17.1518 38.1354C18.5255 38.5369 19.6286 37.7138 19.6286 37.7138L19.691 37.6669L24.811 33.1698L33.3929 39.5206L33.5871 39.6009C35.3771 40.3572 37.1878 39.9356 38.1452 39.1927C39.1095 38.4432 39.4842 37.4862 39.4842 37.4862L39.5466 37.3323L46.179 4.56105C46.3663 3.75131 46.4149 2.9951 46.2067 2.25897C45.9986 1.52284 45.4644 0.833548 44.8192 0.465481C44.1671 0.0907229 43.5219 -0.0230425 42.9252 0.00372591ZM42.7449 3.51708C42.7379 3.62416 42.7587 3.61077 42.7102 3.81823V3.8383L36.1402 36.2683C36.1125 36.3151 36.0639 36.4155 35.9321 36.5159C35.7933 36.623 35.6823 36.6899 35.1065 36.469L24.6098 28.7062L18.2688 34.2807L19.6008 26.0762C19.6008 26.0762 36.0431 11.2933 36.7507 10.6576C37.4584 10.0218 37.2225 9.88797 37.2225 9.88797C37.271 9.11169 36.1541 9.66044 36.1541 9.66044L14.5294 22.5829L14.5225 22.5494L4.15759 19.1833V19.1766C4.15065 19.1766 4.13678 19.1699 4.12984 19.1699C4.13678 19.1699 4.18534 19.1499 4.18534 19.1499L4.24085 19.1231L4.29635 19.103C4.29635 19.103 13.5512 15.342 22.9587 11.5208C27.6693 9.6069 32.4147 7.67958 36.0639 6.19393C39.7131 4.71497 42.4118 3.63085 42.5645 3.57062C42.7102 3.51708 42.6408 3.51708 42.7449 3.51708Z" fill="white"/>
</svg>
