<svg width="41" height="40" viewBox="0 0 41 40" fill="none" xmlns="http://www.w3.org/2000/svg">
<path d="M29.9823 23.9713C29.481 23.7175 27.0398 22.5263 26.5835 22.3563C26.1273 22.1938 25.796 22.1088 25.4635 22.61C25.1385 23.0988 24.181 24.2175 23.8885 24.5438C23.596 24.87 23.3085 24.895 22.8148 24.6738C22.3135 24.42 20.7123 23.8987 18.811 22.1937C17.326 20.8725 16.3373 19.245 16.0435 18.7438C15.751 18.2488 16.011 17.9688 16.2585 17.7213C16.486 17.4938 16.7598 17.1488 17.0135 16.8488C17.2548 16.5488 17.3323 16.3475 17.5085 16.0225C17.671 15.6713 17.5873 15.3975 17.4635 15.15C17.3398 14.9025 16.3435 12.4488 15.9273 11.4713C15.5298 10.5013 15.1135 10.625 14.8073 10.625C14.521 10.5988 14.1885 10.5988 13.8573 10.5988C13.526 10.5988 12.9848 10.7225 12.5285 11.1975C12.0723 11.6988 10.7835 12.8963 10.7835 15.3188C10.7835 17.7475 12.5673 20.0975 12.8148 20.4487C13.0685 20.7738 16.3235 25.7738 21.3173 27.9225C22.5085 28.4237 23.4335 28.7238 24.156 28.9713C25.3473 29.3488 26.4348 29.2963 27.2935 29.1725C28.2435 29.0163 30.236 27.9675 30.6535 26.7963C31.0773 25.6175 31.0773 24.6413 30.9535 24.42C30.8298 24.1925 30.5048 24.0688 30.0035 23.8475L29.9823 23.9713ZM20.926 36.25H20.8998C17.9435 36.25 15.021 35.4487 12.4685 33.9512L11.8698 33.5938L5.61977 35.2212L7.29977 29.14L6.89602 28.515C5.24852 25.8913 4.36977 22.8638 4.36977 19.7525C4.36977 10.6775 11.7985 3.275 20.9385 3.275C25.366 3.275 29.5198 5 32.6448 8.125C35.7698 11.2238 37.4948 15.3775 37.4948 19.7787C37.4823 28.8475 30.0598 36.25 20.9323 36.25H20.926ZM35.021 5.74875C31.2185 2.07625 26.2185 0 20.8998 0C9.92976 0 0.997266 8.89375 0.991016 19.8238C0.991016 23.3138 1.90227 26.7188 3.64727 29.7325L0.822266 40L11.3823 37.2463C14.2923 38.815 17.5673 39.655 20.901 39.6613H20.9073C31.8835 39.6613 40.816 30.7675 40.8223 19.83C40.8223 14.5375 38.7585 9.55625 34.996 5.8125L35.021 5.74875Z" fill="white"/>
</svg>
