<svg width="62" height="42" viewBox="0 0 62 42" fill="none" xmlns="http://www.w3.org/2000/svg">
<path d="M59.1192 7.26132C58.8005 6.0334 58.1516 4.90834 57.238 3.99976C56.3243 3.09118 55.1783 2.43127 53.9156 2.08668C49.3021 1 30.8482 1 30.8482 1C30.8482 1 12.3942 1 7.78075 2.19017C6.51807 2.53476 5.37202 3.19467 4.45836 4.10325C3.5447 5.01183 2.89579 6.1369 2.57717 7.36481C1.73283 11.8811 1.31982 16.4626 1.34333 21.0517C1.31323 25.6754 1.72627 30.2919 2.57717 34.8422C2.92844 36.0319 3.59188 37.1142 4.50342 37.9844C5.41495 38.8546 6.54375 39.4833 7.78075 39.8098C12.3942 41 30.8482 41 30.8482 41C30.8482 41 49.3021 41 53.9156 39.8098C55.1783 39.4652 56.3243 38.8053 57.238 37.8968C58.1516 36.9882 58.8005 35.8631 59.1192 34.6352C59.957 30.1529 60.37 25.6063 60.353 21.0517C60.3831 16.4281 59.9701 11.8116 59.1192 7.26132V7.26132Z" stroke="white" stroke-width="1.87212" stroke-linecap="round" stroke-linejoin="round"/>
<path d="M24.8145 29.5148L40.2374 21.0543L24.8145 12.5938V29.5148Z" stroke="white" stroke-width="1.87212" stroke-linecap="round" stroke-linejoin="round"/>
</svg>
