<svg width="34" height="26" viewBox="0 0 34 26" fill="none" xmlns="http://www.w3.org/2000/svg">
<path d="M2.83398 5.5C4.2147 5.5 5.33398 4.38071 5.33398 3C5.33398 1.61929 4.2147 0.5 2.83398 0.5C1.45327 0.5 0.333984 1.61929 0.333984 3C0.333984 4.38071 1.45327 5.5 2.83398 5.5Z" fill="black"/>
<path d="M10.334 1.33333C9.41351 1.33333 8.66732 2.07953 8.66732 3C8.66732 3.92047 9.41351 4.66667 10.334 4.66667H32.0007C32.9211 4.66667 33.6673 3.92047 33.6673 3C33.6673 2.07953 32.9211 1.33333 32.0007 1.33333H10.334Z" fill="black"/>
<path d="M10.334 11.3333C9.41351 11.3333 8.66732 12.0795 8.66732 13C8.66732 13.9205 9.41351 14.6667 10.334 14.6667H32.0007C32.9211 14.6667 33.6673 13.9205 33.6673 13C33.6673 12.0795 32.9211 11.3333 32.0007 11.3333H10.334Z" fill="black"/>
<path d="M8.66732 23C8.66732 22.0795 9.41351 21.3333 10.334 21.3333H32.0007C32.9211 21.3333 33.6673 22.0795 33.6673 23C33.6673 23.9205 32.9211 24.6667 32.0007 24.6667H10.334C9.41351 24.6667 8.66732 23.9205 8.66732 23Z" fill="black"/>
<path d="M5.33398 13C5.33398 14.3807 4.2147 15.5 2.83398 15.5C1.45327 15.5 0.333984 14.3807 0.333984 13C0.333984 11.6193 1.45327 10.5 2.83398 10.5C4.2147 10.5 5.33398 11.6193 5.33398 13Z" fill="black"/>
<path d="M2.83398 25.5C4.2147 25.5 5.33398 24.3807 5.33398 23C5.33398 21.6193 4.2147 20.5 2.83398 20.5C1.45327 20.5 0.333984 21.6193 0.333984 23C0.333984 24.3807 1.45327 25.5 2.83398 25.5Z" fill="black"/>
</svg>
