<svg width="63" height="44" viewBox="0 0 63 44" fill="none" xmlns="http://www.w3.org/2000/svg">
<path d="M30.1231 0.636902C29.6008 0.890591 28.9045 1.64013 28.624 2.2513L28.3338 2.87399L28.3435 6.50638C28.3435 8.50131 28.4015 12.2375 28.4692 14.809C28.682 23.1346 28.711 27.0092 28.5756 27.2052C28.1307 27.8394 26.3705 26.6056 25.8289 25.2679C25.3357 24.0571 25.2293 22.535 24.9972 13.3099C24.9391 10.9921 24.8521 8.60509 24.8037 8.00546C24.591 5.44549 24.1364 4.76514 22.6083 4.73055C21.7862 4.71901 21.4961 4.91505 21.1576 5.71071C20.9642 6.14891 20.9255 6.50638 20.8384 8.40906C20.7901 9.60832 20.7417 11.5802 20.7417 12.791C20.7417 14.8666 20.645 15.9967 20.3549 17.5189C20.1421 18.6605 19.6585 19.1909 18.6817 19.3523C17.995 19.4792 17.289 19.2486 16.525 18.672C14.523 17.1498 13.904 16.7117 12.7337 16.0198C11.4474 15.2587 10.6253 14.8551 8.99086 14.2209C7.64653 13.702 6.76642 13.5059 5.60584 13.4944C2.82046 13.4713 0.876488 14.6706 0.131783 16.8846C-0.071318 17.4958 -0.032632 18.9142 0.199484 19.5368C0.596015 20.5747 1.49546 21.3473 2.69473 21.6817C7.73357 23.077 8.88448 23.6074 15.2483 27.4589C17.7242 28.9695 18.614 29.6614 21.0222 31.9792C23.8753 34.7006 26.1964 37.1222 28.0437 39.267C30.8097 42.4958 31.5641 43.2915 31.8639 43.2915C31.98 43.2915 32.2895 42.8994 32.744 42.1614C34.2044 39.809 34.6396 39.1633 35.5488 37.9294C37.8602 34.7929 40.3265 32.2906 44.4852 28.8657C48.5279 25.5216 51.0522 23.5498 51.7292 23.1692C54.3598 21.7278 55.4237 21.2666 59.1182 19.9289C61.7392 18.9833 62.2711 18.672 62.7643 17.7841C63.1609 17.0691 63.0835 16.481 62.3291 14.6245C61.7392 13.1946 60.9074 12.2375 59.6211 11.4879C59.1762 11.2342 57.9383 10.8883 57.474 10.8883C56.4295 10.8883 54.3405 11.6494 51.7485 12.9755C49.6498 14.0479 48.3732 14.9358 45.5878 17.2536C44.2338 18.3722 43.6728 18.7181 43.1989 18.7296C42.1254 18.7412 41.99 17.8879 41.8739 10.773C41.8449 8.70887 41.7772 6.69088 41.7288 6.29881C41.6225 5.36477 41.2936 4.59217 40.8391 4.15398C40.5296 3.86569 40.3942 3.81956 39.9106 3.81956C39.0885 3.8311 38.3438 4.32695 38.015 5.09955C37.7732 5.66459 37.3863 7.5788 37.2993 8.63968C37.2509 9.20472 37.2509 10.3809 37.2993 11.2342C37.338 12.0876 37.425 15.2933 37.4831 18.3376L37.5991 23.8957L37.3863 24.6798C36.8738 26.5941 35.955 27.7241 34.9298 27.7241C34.4559 27.7241 34.2528 27.5281 34.1464 26.9746C34.1077 26.7786 34.04 25.0488 33.9917 23.1116C33.9433 21.1743 33.8563 18.0608 33.8079 16.1927C33.7499 14.3247 33.6628 10.7384 33.6048 8.23609C33.5468 5.73378 33.4597 3.36984 33.4114 3.00084C33.2953 2.08986 32.8988 1.35185 32.3088 0.913654C31.9026 0.613838 31.7189 0.567715 31.0999 0.544651C30.6937 0.521587 30.2585 0.567715 30.1231 0.636902Z" fill="#FF4004"/>
</svg>
