<svg width="24" height="20" viewBox="0 0 24 20" fill="none" xmlns="http://www.w3.org/2000/svg">
<path fill-rule="evenodd" clip-rule="evenodd" d="M23 4V16C23 17.6523 21.6523 19 20 19H4C2.34772 19 1 17.6523 1 16V4C1 2.34315 2.34315 1 4 1H20C21.6569 1 23 2.34315 23 4ZM3.10658 3.55395C3.27196 3.22692 3.61204 3 4 3H20C20.388 3 20.728 3.22692 20.8934 3.55395L12 9.77934L3.10658 3.55395ZM3 5.92066L10.8531 11.4178C11.5417 11.8999 12.4583 11.8999 13.1469 11.4178L21 5.92066V16C21 16.5477 20.5477 17 20 17H4C3.45228 17 3 16.5477 3 16V5.92066Z" fill="#2A2A2A" stroke="white"/>
</svg>
