<svg width="43" height="14" viewBox="0 0 43 14" fill="none" xmlns="http://www.w3.org/2000/svg">
<path d="M7.95928 6.01145V9.73945C7.82071 9.92272 7.60391 10.1239 7.30889 10.3429C7.01834 10.5575 6.63168 10.743 6.14892 10.8994C5.66615 11.0559 5.06494 11.1341 4.34526 11.1341C3.73287 11.1341 3.17188 11.0313 2.6623 10.8257C2.15272 10.6156 1.71242 10.3094 1.34141 9.90708C0.974866 9.50478 0.691019 9.01531 0.489868 8.43868C0.288717 7.85757 0.188142 7.19601 0.188142 6.45399V5.77678C0.188142 5.03922 0.279777 4.38213 0.463048 3.8055C0.650789 3.2244 0.91899 2.73269 1.26765 2.33039C1.61631 1.92809 2.0365 1.62413 2.5282 1.41851C3.02437 1.20842 3.58536 1.10337 4.21116 1.10337C5.0113 1.10337 5.67286 1.23747 6.19585 1.50567C6.72331 1.7694 7.13009 2.13594 7.41617 2.6053C7.70225 3.07465 7.88329 3.61105 7.95928 4.21451H6.30984C6.2562 3.87478 6.15115 3.57082 5.9947 3.30262C5.84272 3.03442 5.62369 2.82433 5.33761 2.67235C5.056 2.5159 4.68945 2.43767 4.23798 2.43767C3.84909 2.43767 3.50713 2.51143 3.21211 2.65894C2.91709 2.80645 2.67124 3.02324 2.47456 3.30933C2.28235 3.59541 2.13707 3.94407 2.03873 4.35531C1.94039 4.76655 1.89122 5.23591 1.89122 5.76337V6.45399C1.89122 6.99039 1.9471 7.46645 2.05885 7.88216C2.17507 8.29787 2.34046 8.64877 2.55502 8.93485C2.77405 9.22093 3.04002 9.43773 3.35292 9.58524C3.66582 9.72828 4.01895 9.7998 4.41231 9.7998C4.79674 9.7998 5.11187 9.76851 5.35772 9.70593C5.60357 9.63888 5.79802 9.56065 5.94106 9.47125C6.08857 9.37738 6.20256 9.28798 6.28302 9.20305V7.2653H4.25139V6.01145H7.95928ZM9.35392 7.45304V7.29882C9.35392 6.77583 9.42991 6.29083 9.58189 5.84383C9.73388 5.39236 9.95291 5.00123 10.239 4.67045C10.5295 4.3352 10.8827 4.07593 11.2984 3.89266C11.7186 3.70492 12.1924 3.61105 12.7199 3.61105C13.2518 3.61105 13.7256 3.70492 14.1413 3.89266C14.5615 4.07593 14.9169 4.3352 15.2074 4.67045C15.498 5.00123 15.7192 5.39236 15.8712 5.84383C16.0232 6.29083 16.0992 6.77583 16.0992 7.29882V7.45304C16.0992 7.97603 16.0232 8.46103 15.8712 8.90803C15.7192 9.35503 15.498 9.74616 15.2074 10.0814C14.9169 10.4122 14.5637 10.6715 14.148 10.8592C13.7323 11.0425 13.2607 11.1341 12.7333 11.1341C12.2013 11.1341 11.7253 11.0425 11.3051 10.8592C10.8894 10.6715 10.5362 10.4122 10.2457 10.0814C9.95514 9.74616 9.73388 9.35503 9.58189 8.90803C9.42991 8.46103 9.35392 7.97603 9.35392 7.45304ZM10.9698 7.29882V7.45304C10.9698 7.77935 11.0034 8.08778 11.0704 8.37833C11.1375 8.66888 11.2425 8.92367 11.3855 9.14271C11.5286 9.36174 11.7119 9.53383 11.9354 9.65899C12.1589 9.78415 12.4248 9.84673 12.7333 9.84673C13.0328 9.84673 13.292 9.78415 13.511 9.65899C13.7345 9.53383 13.9178 9.36174 14.0609 9.14271C14.2039 8.92367 14.3089 8.66888 14.376 8.37833C14.4475 8.08778 14.4833 7.77935 14.4833 7.45304V7.29882C14.4833 6.97698 14.4475 6.67302 14.376 6.38694C14.3089 6.09639 14.2017 5.83936 14.0542 5.61586C13.9111 5.39236 13.7278 5.21803 13.5043 5.09286C13.2853 4.96323 13.0238 4.89842 12.7199 4.89842C12.4159 4.89842 12.1522 4.96323 11.9287 5.09286C11.7096 5.21803 11.5286 5.39236 11.3855 5.61586C11.2425 5.83936 11.1375 6.09639 11.0704 6.38694C11.0034 6.67302 10.9698 6.97698 10.9698 7.29882ZM17.1452 7.45304V7.29882C17.1452 6.77583 17.2212 6.29083 17.3731 5.84383C17.5251 5.39236 17.7442 5.00123 18.0302 4.67045C18.3208 4.3352 18.6739 4.07593 19.0896 3.89266C19.5098 3.70492 19.9836 3.61105 20.5111 3.61105C21.043 3.61105 21.5169 3.70492 21.9326 3.89266C22.3528 4.07593 22.7081 4.3352 22.9987 4.67045C23.2892 5.00123 23.5105 5.39236 23.6625 5.84383C23.8144 6.29083 23.8904 6.77583 23.8904 7.29882V7.45304C23.8904 7.97603 23.8144 8.46103 23.6625 8.90803C23.5105 9.35503 23.2892 9.74616 22.9987 10.0814C22.7081 10.4122 22.355 10.6715 21.9393 10.8592C21.5236 11.0425 21.052 11.1341 20.5245 11.1341C19.9926 11.1341 19.5165 11.0425 19.0963 10.8592C18.6806 10.6715 18.3275 10.4122 18.0369 10.0814C17.7464 9.74616 17.5251 9.35503 17.3731 8.90803C17.2212 8.46103 17.1452 7.97603 17.1452 7.45304ZM18.7611 7.29882V7.45304C18.7611 7.77935 18.7946 8.08778 18.8617 8.37833C18.9287 8.66888 19.0338 8.92367 19.1768 9.14271C19.3198 9.36174 19.5031 9.53383 19.7266 9.65899C19.9501 9.78415 20.2161 9.84673 20.5245 9.84673C20.824 9.84673 21.0833 9.78415 21.3023 9.65899C21.5258 9.53383 21.7091 9.36174 21.8521 9.14271C21.9951 8.92367 22.1002 8.66888 22.1672 8.37833C22.2388 8.08778 22.2745 7.77935 22.2745 7.45304V7.29882C22.2745 6.97698 22.2388 6.67302 22.1672 6.38694C22.1002 6.09639 21.9929 5.83936 21.8454 5.61586C21.7024 5.39236 21.5191 5.21803 21.2956 5.09286C21.0766 4.96323 20.8151 4.89842 20.5111 4.89842C20.2071 4.89842 19.9434 4.96323 19.7199 5.09286C19.5009 5.21803 19.3198 5.39236 19.1768 5.61586C19.0338 5.83936 18.9287 6.09639 18.8617 6.38694C18.7946 6.67302 18.7611 6.97698 18.7611 7.29882ZM29.8914 3.74515H31.3598V10.7988C31.3598 11.4515 31.2213 12.0058 30.9441 12.4617C30.667 12.9176 30.2803 13.2641 29.7842 13.501C29.288 13.7424 28.7136 13.863 28.061 13.863C27.7838 13.863 27.4754 13.8228 27.1357 13.7424C26.8004 13.6619 26.4741 13.5323 26.1567 13.3535C25.8438 13.1791 25.5823 12.9489 25.3722 12.6628L26.1299 11.7107C26.3892 12.0192 26.6753 12.2449 26.9882 12.3879C27.3011 12.531 27.6296 12.6025 27.9738 12.6025C28.3448 12.6025 28.66 12.5332 28.9192 12.3946C29.1829 12.2605 29.3863 12.0616 29.5294 11.7979C29.6724 11.5342 29.7439 11.2123 29.7439 10.8324V5.38789L29.8914 3.74515ZM24.9632 7.45304V7.31223C24.9632 6.76242 25.0303 6.26178 25.1644 5.8103C25.2985 5.35436 25.4907 4.96323 25.741 4.63692C25.9913 4.30614 26.2953 4.05358 26.6529 3.87925C27.0105 3.70045 27.415 3.61105 27.8665 3.61105C28.3359 3.61105 28.7359 3.69598 29.0667 3.86584C29.402 4.0357 29.6814 4.27932 29.9049 4.59669C30.1284 4.90959 30.3027 5.28508 30.4278 5.72314C30.5575 6.15673 30.6536 6.63949 30.7162 7.17143V7.62066C30.6581 8.13919 30.5597 8.61301 30.4211 9.04213C30.2826 9.47125 30.0993 9.84226 29.8713 10.1552C29.6434 10.4681 29.3617 10.7094 29.0265 10.8793C28.6957 11.0492 28.3046 11.1341 27.8531 11.1341C27.4106 11.1341 27.0105 11.0425 26.6529 10.8592C26.2998 10.6759 25.9958 10.4189 25.741 10.0881C25.4907 9.75733 25.2985 9.36844 25.1644 8.92144C25.0303 8.46997 24.9632 7.9805 24.9632 7.45304ZM26.5792 7.31223V7.45304C26.5792 7.78382 26.6104 8.09225 26.673 8.37833C26.7401 8.66441 26.8407 8.91697 26.9748 9.136C27.1133 9.35056 27.2877 9.52042 27.4977 9.64558C27.7123 9.76627 27.9649 9.82662 28.2554 9.82662C28.6354 9.82662 28.946 9.74616 29.1874 9.58524C29.4333 9.42432 29.621 9.20752 29.7506 8.93485C29.8847 8.65771 29.9786 8.34928 30.0322 8.00955V6.79594C30.0054 6.53221 29.9496 6.28636 29.8646 6.05839C29.7842 5.83042 29.6746 5.6315 29.5361 5.46164C29.3975 5.28731 29.2232 5.15321 29.0131 5.05934C28.803 4.961 28.5549 4.91183 28.2688 4.91183C27.9783 4.91183 27.7257 4.97441 27.5112 5.09957C27.2966 5.22473 27.12 5.39683 26.9815 5.61586C26.8474 5.83489 26.7468 6.08968 26.6797 6.38023C26.6127 6.67078 26.5792 6.98145 26.5792 7.31223ZM34.766 0.701068V11H33.1434V0.701068H34.766ZM39.7344 11.1341C39.198 11.1341 38.713 11.0469 38.2794 10.8726C37.8503 10.6938 37.4838 10.4457 37.1798 10.1283C36.8803 9.81097 36.6501 9.43773 36.4892 9.0086C36.3283 8.57948 36.2478 8.11684 36.2478 7.62066V7.35246C36.2478 6.78477 36.3305 6.27072 36.4959 5.8103C36.6613 5.34989 36.8915 4.95653 37.1865 4.63022C37.4815 4.29944 37.8302 4.04688 38.2325 3.87255C38.6348 3.69822 39.0706 3.61105 39.54 3.61105C40.0585 3.61105 40.5122 3.69822 40.9011 3.87255C41.29 4.04688 41.6118 4.29273 41.8666 4.6101C42.1259 4.923 42.3181 5.29625 42.4433 5.72984C42.5729 6.16344 42.6377 6.64173 42.6377 7.16472V7.85534H37.0323V6.69537H41.0419V6.56797C41.033 6.27742 40.9749 6.00475 40.8676 5.74996C40.7648 5.49517 40.6061 5.28955 40.3915 5.1331C40.177 4.97664 39.8909 4.89842 39.5333 4.89842C39.2651 4.89842 39.0259 4.95653 38.8158 5.07275C38.6102 5.1845 38.4381 5.34766 38.2996 5.56222C38.161 5.77678 38.0537 6.03604 37.9777 6.34C37.9062 6.63949 37.8704 6.97698 37.8704 7.35246V7.62066C37.8704 7.93803 37.9129 8.23306 37.9978 8.50573C38.0872 8.77393 38.2169 9.0086 38.3867 9.20976C38.5566 9.41091 38.7622 9.56959 39.0036 9.68581C39.245 9.79756 39.5199 9.85344 39.8283 9.85344C40.2172 9.85344 40.5636 9.77521 40.8676 9.61876C41.1715 9.46231 41.4353 9.24105 41.6588 8.95496L42.5103 9.77968C42.3539 10.0077 42.1505 10.2267 41.9002 10.4368C41.6498 10.6424 41.3436 10.81 40.9816 10.9397C40.624 11.0693 40.2083 11.1341 39.7344 11.1341Z" fill="#2A2A2A"/>
</svg>
