<svg width="21" height="22" viewBox="0 0 21 22" fill="none" xmlns="http://www.w3.org/2000/svg">
<g clip-path="url(#clip0_1502_11825)">
<path fill-rule="evenodd" clip-rule="evenodd" d="M5.25 9.25V6.625C5.25 5.23261 5.80312 3.89726 6.78769 2.91269C7.77226 1.92812 9.10761 1.375 10.5 1.375C11.8924 1.375 13.2277 1.92812 14.2123 2.91269C15.1969 3.89726 15.75 5.23261 15.75 6.625V9.25H16.625C18.0747 9.25 19.25 10.4253 19.25 11.875V18C19.25 19.4497 18.0747 20.625 16.625 20.625H4.375C2.92525 20.625 1.75 19.4497 1.75 18V11.875C1.75 10.4253 2.92525 9.25 4.375 9.25H5.25ZM8.02513 4.15013C8.6815 3.49375 9.57174 3.125 10.5 3.125C11.4283 3.125 12.3185 3.49375 12.9749 4.15013C13.6313 4.8065 14 5.69674 14 6.625V9.25H7V6.625C7 5.69674 7.36875 4.8065 8.02513 4.15013ZM4.375 11C3.89175 11 3.5 11.3918 3.5 11.875V18C3.5 18.4832 3.89175 18.875 4.375 18.875H16.625C17.1082 18.875 17.5 18.4832 17.5 18V11.875C17.5 11.3918 17.1082 11 16.625 11H4.375Z" fill="#2A2A2A" stroke="white" stroke-linecap="round" stroke-linejoin="round"/>
</g>
<defs>
<clipPath id="clip0_1502_11825">
<rect width="21" height="21" fill="white" transform="translate(0 0.5)"/>
</clipPath>
</defs>
</svg>
